# xmcd
#
# Track frame offsets: 
#        150
#        16774
#        37895
#        67868
#        83077
#        102094
#        117676
#        132587
#        144158
#        158707
#        168173
#        184540
#        197667
#
# Disc length: 2729 seconds
#
# Revision: 0
# Processed by: cddbd v1.5.2PL0 Copyright (c) Steve Scherf et al.
# Submitted via: ExactAudioCopy v0.95b4
#
DISCID=9c0aa70d
DTITLE=Kevin GUEGAN - Kevin Texas Band
DYEAR=2003
DGENRE=Blues
TTITLE0=Somehow somewhere someway
TTITLE1=You're a bad one
TTITLE2=Chicago Blues
TTITLE3=Looking out the window
TTITLE4=loawn down and dirty
TTITLE5=Fallin'love
TTITLE6=Rack'em up
TTITLE7=Lovin'my baby
TTITLE8=Miss Griffin
TTITLE9=Bad Play
TTITLE10=E train
TTITLE11=Come on
TTITLE12=Bottle field
EXTD=
EXTT0=
EXTT1=
EXTT2=
EXTT3=
EXTT4=
EXTT5=
EXTT6=
EXTT7=
EXTT8=
EXTT9=
EXTT10=
EXTT11=
EXTT12=
PLAYORDER=
